PathFileType	4	(X/Y/Z)	Walk1.trc
DataRate	CameraRate	NumFrames	NumMarkers	Units	OrigDataRate	OrigDataStartFrame	OrigNumFrames
200.000000	200.000000	8	56	mm	200.000000	757	966
Frame#	Times		LToe		LBHD		RLFC		LACR1		RTH2		C7		LElbow		LUA1		RWRU		LCAR		RMT1		RCAL		LMFC		LWRU		RMT5		RMFC		RTB2		RToe		LWRR		RCAR		RTB3		RTB4		LTH4		RTB1		RFA1		LTH1		LPSI		RElbow		LFHD		RBHD		RPSI		RElbowM		LTH3		T10		RACR1		LASI		LMMAL		LTH2		RTH3		LLFC		LCAL		RMMAL		RBack		RTH1		LTB2		LTB3		RTH4		RFHD		RLMAL		LMT5		RASI		RWRR		LMT1		LLMAL		LTB1		LTB4
			X1	Y1	Z1	X2	Y2	Z2	X3	Y3	Z3	X4	Y4	Z4	X5	Y5	Z5	X6	Y6	Z6	X7	Y7	Z7	X8	Y8	Z8	X9	Y9	Z9	X10	Y10	Z10	X11	Y11	Z11	X12	Y12	Z12	X13	Y13	Z13	X14	Y14	Z14	X15	Y15	Z15	X16	Y16	Z16	X17	Y17	Z17	X18	Y18	Z18	X19	Y19	Z19	X20	Y20	Z20	X21	Y21	Z21	X22	Y22	Z22	X23	Y23	Z23	X24	Y24	Z24	X25	Y25	Z25	X26	Y26	Z26	X27	Y27	Z27	X28	Y28	Z28	X29	Y29	Z29	X30	Y30	Z30	X31	Y31	Z31	X32	Y32	Z32	X33	Y33	Z33	X34	Y34	Z34	X35	Y35	Z35	X36	Y36	Z36	X37	Y37	Z37	X38	Y38	Z38	X39	Y39	Z39	X40	Y40	Z40	X41	Y41	Z41	X42	Y42	Z42	X43	Y43	Z43	X44	Y44	Z44	X45	Y45	Z45	X46	Y46	Z46	X47	Y47	Z47	X48	Y48	Z48	X49	Y49	Z49	X50	Y50	Z50	X51	Y51	Z51	X52	Y52	Z52	X53	Y53	Z53	X54	Y54	Z54	X55	Y55	Z55	X56	Y56	Z56

757	3.785	-95.541	30.923	-64.565	68.418	1591	-22.84	200.21	521.38	137.98	109.94	1399	-138.2	206.51	678.1	121.87	15.899	1451.7	27.835	91.352	1070	-288.21	107.52	1205.1	-232.59	-28.109	777.18	261.16	151.61	941.01	-278.47	417.62	41.188	69.533	211.45	30.981	35.95	-98.455	483.03	3.4989	307.68	846.11	-222.13	371.04	27.967	138.08	192.19	484.51	12.479	267.01	293.84	127.76	464.7	50.07	113.38	237.99	831.78	-247.04	38.362	750.46	285.06	287.1	207.2	54.408	281.68	295.96	54.709	-12.017	644.37	-149	274.03	393.12	58.793	-34.695	897.11	290.08	11.313	732.69	-167.42	-90.574	1011.5	-27.338	-49.062	1058.5	290.4	249	1590.3	7.1379	68.724	1577.1	113.42	-89.815	1012.1	41.553	-77.443	1066.8	210.82	-36.633	554.36	-131.66	-72.397	1197.7	14.229	110.93	1382	184.19	97.365	1012.1	-153.24	-267.23	84.061	-11.79	43.181	636.67	-101.82	183.51	562.75	140.83	-71.383	494.94	-120.65	-359.52	69.628	-47.722	291.89	73.819	27.563	-21.214	1334.3	168.05	112.9	735.62	179.45	-133.87	280.73	-108.75	-182.99	201.11	-38.617	152.01	649.43	162.76	249.59	1584.5	81.878	257.06	64.56	102.34	-187.97	24.214	-121.97	105.01	954.89	153.12	50.104	796.27	236.68	-147.15	28.887	-42.737	-290.21	83.594	-95.355	-85.513	358.68	-36.834	-134.75	280.44	-36.5
758	3.79	-95.509	30.561	-64.352	74.036	1591.1	-21.468	206.83	521.96	138.24	115.83	1399.2	-137.07	213.15	678.73	121.85	21.704	1451.8	29.065	96.093	1070.2	-287.01	112.83	1205.3	-231.45	-22.524	776.53	261.75	155.77	940.94	-277.56	418.32	39.121	69.051	211.7	31.467	36.176	-91.896	482.77	3.6585	311.43	845.2	-221.6	371.68	26.736	138.41	198.05	485.06	12.932	271.09	293.58	127.89	465.82	47.206	112.82	241.64	831.22	-246.43	43.92	749.6	285.57	289.69	206.75	54.373	285.4	295.54	54.741	-5.1939	644.01	-148.23	278.96	392.82	58.876	-28.759	896.49	290.57	17.791	732.41	-166.55	-84.527	1011.5	-26.887	-42.698	1057.9	290.8	254.66	1590.5	8.3635	74.475	1577.1	114.79	-83.663	1012.3	42.081	-71.208	1066.4	211.26	-29.467	553.89	-130.99	-66.372	1197.6	14.945	116.71	1381.9	185.3	103.97	1012.2	-152.43	-265.63	86.587	-12.103	49.953	636.52	-100.97	190.23	563.46	141.22	-64.336	494.66	-119.97	-358.08	73.874	-48.031	292.64	73.353	27.476	-15.335	1334	169.03	119.69	736.38	179.55	-129.39	281.26	-108.59	-179.79	202.33	-38.614	158.71	650.13	162.88	255.32	1584.6	83.094	257.93	64.566	102.31	-187.69	24.707	-121.72	111.2	955.23	153.55	55.705	795.37	237.15	-146.98	28.775	-42.833	-288.57	86.465	-95.65	-79.985	358.38	-36.508	-130.37	280.91	-36.308
759	3.795	-95.498	30.198	-64.113	79.665	1591.3	-20.102	213.3	522.53	138.5	121.73	1399.6	-135.93	219.65	679.35	121.86	27.527	1451.9	30.271	100.74	1070.5	-285.79	118.12	1205.6	-230.29	-16.909	775.97	262.34	159.78	940.94	-276.63	418.94	37.311	68.541	211.92	31.892	36.391	-84.943	482.44	3.7892	315.01	844.27	-221.12	372.25	25.725	138.76	203.78	485.63	13.353	275.02	293.33	127.99	466.85	44.582	112.26	245.1	830.68	-245.85	49.503	748.84	286.11	292.16	206.35	54.307	288.98	295.16	54.749	1.8974	643.65	-147.44	283.73	392.53	58.937	-22.783	895.97	291.07	24.451	732.17	-165.65	-78.486	1011.7	-26.421	-36.293	1057.4	291.2	260.32	1590.8	9.5872	80.235	1577.2	116.15	-77.522	1012.6	42.62	-64.939	1066	211.67	-21.949	553.41	-130.3	-60.358	1197.7	15.655	122.49	1381.8	186.39	110.56	1012.4	-151.58	-263.8	89.316	-12.456	56.99	636.43	-100.08	196.82	564.17	141.63	-56.901	494.37	-119.3	-356.38	78.448	-48.362	293.26	72.956	27.355	-9.4613	1333.8	170	126.41	737.15	179.72	-124.63	281.86	-108.47	-176.32	203.67	-38.65	165.32	650.82	163.05	261.06	1584.9	84.307	258.68	64.621	102.24	-187.34	25.297	-121.47	117.35	955.66	154.03	61.342	794.56	237.63	-146.8	28.655	-42.929	-286.71	89.557	-95.979	-74.105	358.09	-36.227	-125.68	281.45	-36.159
760	3.8	-95.51	29.843	-63.847	85.304	1591.6	-18.748	219.59	523.05	138.75	127.64	1400	-134.78	226.02	679.93	121.89	33.361	1452.2	31.451	105.31	1070.9	-284.55	123.37	1205.9	-229.12	-11.262	775.51	262.95	163.63	940.99	-275.7	419.49	35.737	68.007	212.13	32.258	36.589	-77.579	482.06	3.9001	318.41	843.35	-220.7	372.78	24.913	139.11	209.35	486.2	13.737	278.8	293.1	128.06	467.81	42.182	111.69	248.36	830.17	-245.29	55.11	748.17	286.67	294.49	205.98	54.209	292.4	294.81	54.731	9.2582	643.31	-146.63	288.34	392.26	58.973	-16.769	895.54	291.57	31.292	731.95	-164.7	-72.454	1011.9	-25.938	-29.854	1057	291.58	266	1591.1	10.805	86	1577.3	117.5	-71.397	1012.9	43.171	-58.637	1065.8	212.07	-14.075	552.92	-129.59	-54.357	1197.8	16.365	128.27	1381.9	187.46	117.12	1012.8	-150.69	-261.73	92.244	-12.851	64.293	636.38	-99.151	203.24	564.85	142.05	-49.075	494.07	-118.64	-354.41	83.348	-48.718	293.78	72.618	27.201	-3.5932	1333.7	170.96	133.03	737.91	179.96	-119.56	282.55	-108.4	-172.55	205.13	-38.727	171.79	651.48	163.28	266.81	1585.2	85.514	259.33	64.718	102.13	-186.9	25.991	-121.23	123.45	956.19	154.56	67.015	793.84	238.13	-146.63	28.53	-43.019	-284.61	92.867	-96.347	-67.867	357.82	-35.992	-120.67	282.05	-36.054
761	3.805	-95.55	29.514	-63.552	90.949	1592	-17.408	225.67	523.53	139	133.56	1400.4	-133.64	232.24	680.47	121.97	39.2	1452.5	32.606	109.78	1071.4	-283.29	128.59	1206.3	-227.93	-5.5847	775.14	263.55	167.33	941.11	-274.75	419.99	34.379	67.455	212.32	32.57	36.767	-69.791	481.6	4.002	321.62	842.43	-220.34	373.25	24.276	139.44	214.77	486.78	14.082	282.42	292.87	128.11	468.71	39.989	111.11	251.43	829.69	-244.76	60.738	747.61	287.25	296.69	205.65	54.08	295.68	294.47	54.687	16.886	642.96	-145.79	292.77	391.99	58.984	-10.722	895.22	292.08	38.312	731.75	-163.71	-66.432	1012.1	-25.435	-23.389	1056.7	291.96	271.68	1591.5	12.014	91.765	1577.6	118.84	-65.29	1013.3	43.736	-52.304	1065.6	212.46	-5.8493	552.42	-128.87	-48.37	1198	17.077	134.05	1382.1	188.51	123.66	1013.3	-149.78	-259.39	95.366	-13.293	71.86	636.38	-98.189	209.47	565.49	142.47	-40.861	493.75	-118	-352.13	88.566	-49.103	294.2	72.33	27.016	2.2692	1333.7	171.9	139.52	738.64	180.27	-114.18	283.31	-108.37	-168.49	206.72	-38.846	178.12	652.11	163.56	272.56	1585.5	86.711	259.89	64.85	101.99	-186.37	26.795	-121	129.52	956.8	155.15	72.723	793.21	238.65	-146.46	28.405	-43.1	-282.25	96.391	-96.756	-61.267	357.56	-35.802	-115.33	282.73	-35.994
762	3.81	-95.615	29.228	-63.228	96.595	1592.4	-16.088	231.51	523.94	139.24	139.47	1401	-132.49	238.29	680.94	122.12	45.039	1452.9	33.735	114.18	1072	-282.02	133.78	1206.8	-226.74	0.12386	774.87	264.17	170.87	941.29	-273.79	420.43	33.215	66.895	212.49	32.834	36.92	-61.57	481.06	4.1071	324.67	841.51	-220.03	373.68	23.79	139.76	220	487.33	14.388	285.87	292.64	128.12	469.56	37.987	110.54	254.31	829.23	-244.25	66.388	747.15	287.85	298.78	205.33	53.924	298.81	294.14	54.618	24.775	642.62	-144.93	297.03	391.71	58.971	-4.6429	895	292.6	45.508	731.57	-162.69	-60.424	1012.5	-24.91	-16.904	1056.5	292.33	277.36	1592	13.209	97.527	1577.9	120.16	-59.203	1013.7	44.317	-45.946	1065.6	212.83	2.7189	551.89	-128.13	-42.401	1198.3	17.798	139.82	1382.3	189.53	130.16	1013.9	-148.84	-256.77	98.672	-13.781	79.684	636.42	-97.198	215.48	566.06	142.88	-32.265	493.4	-117.39	-349.51	94.089	-49.52	294.55	72.081	26.803	8.126	1333.8	172.84	145.86	739.31	180.65	-108.49	284.15	-108.39	-164.1	208.42	-39.004	184.26	652.68	163.89	278.3	1585.9	87.894	260.38	65.007	101.82	-185.71	27.716	-120.77	135.55	957.48	155.8	78.467	792.67	239.19	-146.28	28.286	-43.166	-279.61	100.12	-97.209	-54.305	357.33	-35.655	-109.65	283.47	-35.978
763	3.815	-95.704	29.004	-62.876	102.24	1592.9	-14.792	237.09	524.27	139.48	145.38	1401.6	-131.36	244.17	681.34	122.33	50.872	1453.4	34.841	118.5	1072.6	-280.75	138.94	1207.3	-225.54	5.8633	774.69	264.78	174.27	941.54	-272.82	420.83	32.225	66.339	212.65	33.055	37.048	-52.912	480.44	4.2282	327.53	840.6	-219.77	374.06	23.433	140.05	225.05	487.87	14.658	289.17	292.4	128.12	470.35	36.157	109.98	257	828.81	-243.76	72.061	746.8	288.46	300.76	205.02	53.749	301.8	293.82	54.529	32.914	642.27	-144.06	301.1	391.43	58.94	1.4635	894.88	293.12	52.872	731.4	-161.64	-54.435	1012.9	-24.363	-10.407	1056.4	292.7	283.03	1592.5	14.387	103.28	1578.3	121.45	-53.139	1014.2	44.917	-39.57	1065.6	213.19	11.616	551.35	-127.38	-36.452	1198.6	18.531	145.6	1382.6	190.53	136.63	1014.7	-147.89	-253.84	102.15	-14.319	87.757	636.49	-96.182	221.23	566.54	143.26	-23.3	493.02	-116.81	-346.54	99.9	-49.972	294.84	71.865	26.568	13.978	1333.9	173.78	152.03	739.92	181.1	-102.48	285.08	-108.45	-159.4	210.25	-39.204	190.21	653.17	164.27	284.04	1586.4	89.06	260.8	65.183	101.63	-184.92	28.759	-120.56	141.53	958.23	156.49	84.246	792.24	239.75	-146.1	28.183	-43.214	-276.67	104.05	-97.706	-46.983	357.12	-35.55	-103.63	284.28	-36.006
764	3.82	-95.806	28.866	-62.498	107.87	1593.5	-13.523	242.41	524.54	139.7	151.25	1402.2	-130.23	249.87	681.65	122.63	56.691	1453.9	35.923	122.75	1073.4	-279.48	144.05	1208	-224.34	11.634	774.61	265.39	177.53	941.84	-271.86	421.2	31.389	65.796	212.8	33.24	37.148	-43.816	479.74	4.3784	330.23	839.7	-219.56	374.4	23.182	140.31	229.91	488.37	14.897	292.29	292.14	128.1	471.1	34.484	109.44	259.52	828.43	-243.29	77.756	746.55	289.1	302.64	204.71	53.56	304.65	293.5	54.428	41.29	641.93	-143.18	305	391.13	58.898	7.5934	894.86	293.64	60.396	731.25	-160.56	-48.467	1013.3	-23.791	-3.9082	1056.3	293.07	288.7	1593	15.543	109.02	1578.8	122.72	-47.102	1014.7	45.535	-33.18	1065.8	213.55	20.824	550.81	-126.63	-30.525	1199	19.28	151.37	1383	191.51	143.05	1015.5	-146.93	-250.6	105.79	-14.906	96.066	636.6	-95.15	226.73	566.94	143.61	-13.981	492.62	-116.27	-343.18	105.97	-50.46	295.09	71.672	26.316	19.826	1334.2	174.71	158.03	740.46	181.6	-96.136	286.09	-108.56	-154.35	212.18	-39.443	195.94	653.6	164.69	289.77	1586.8	90.205	261.17	65.371	101.42	-183.97	29.924	-120.36	147.48	959.04	157.23	90.061	791.91	240.33	-145.91	28.107	-43.24	-273.4	108.16	-98.249	-39.309	356.94	-35.483	-97.267	285.16	-36.077
